# xmcd
#
# Track frame offsets:
#	150
#	22043
#	46070
#	67321
#	89833
#	109031
#	146151
#	161836
#	182346
#	204410
#	231274
#	244427
#	265356
#	289060
#
# Disc length: 3885 seconds
#
# Revision: 1
# Processed by: cddbd v1.5.2PL0 Copyright (c) Steve Scherf et al.
# Submitted via: EasyCDDAExtractor 10.0.1.1
#
DISCID=d90f2b0e
DTITLE=Los Lobos - The Ride
DYEAR=2004
DGENRE=R&B
TTITLE0=La Venganza De Los Pelados (featuring Cafe Tacuba)
TTITLE1=Rita
TTITLE2=Is This All There Is? (featuring Little Willie G.)
TTITLE3=Charmed
TTITLE4=Somewhere In Time (featuring Dave Alvin)
TTITLE5=Wicked Rain/Across 110th Street (featuring Bobby Womack)
TTITLE6=Kitate
TTITLE7=Hurry Tomorrow
TTITLE8=Ya Se Va (featuring Ruben Blades)
TTITLE9=Wreck Of The Carlos Rey (featuring Richard Thompson)
TTITLE10=Matter Of Time (featuring Elvis Costello)
TTITLE11=Someday (featuring Elvis Costello)
TTITLE12=Chains Of Love
TTITLE13=Phone Call From Rita
EXTD=
EXTT0=
EXTT1=
EXTT2=
EXTT3=
EXTT4=
EXTT5=
EXTT6=
EXTT7=
EXTT8=
EXTT9=
EXTT10=
EXTT11=
EXTT12=
EXTT13=
PLAYORDER=
